<svg xmlns="http://www.w3.org/2000/svg" width="80" height="80" fill="none"><g filter="url(#a)"><g clip-path="url(#b)"><path fill="#fff" d="M80 0H0v80h80V0Z"/><path fill="#C6064C" d="M10.936 9.275a1.66 1.66 0 0 0-1.66 1.661h1.66v-1.66Zm1.661 0h-1.66v1.661h1.66v-1.66Zm1.661 0h-1.661v1.661h1.66v-1.66Zm1.661 0h-1.661v1.661h1.66v-1.66Zm1.661 0h-1.661v1.661h1.66v-1.66Zm1.66 0h-1.66v1.661h1.66v-1.66Zm1.66 1.661a1.66 1.66 0 0 0-1.66-1.66v1.66h1.66Zm3.323-1.661h-.83a.83.83 0 0 0 0 1.661h.83v-1.66Zm1.66 1.661a1.66 1.66 0 0 0-1.66-1.66v1.66h1.66Zm3.322-.83a.83.83 0 0 0-1.66 0v.83h1.66v-.83Zm3.321-.831a1.66 1.66 0 0 0-1.66 1.661h1.66v-1.66Zm1.661 1.661a1.66 1.66 0 0 0-1.66-1.66v1.66h1.66Zm6.643-.83a.83.83 0 1 0-1.66 0 .83.83 0 0 0 1.66 0Zm3.322-.831a1.66 1.66 0 0 0-1.66 1.661h1.66v-1.66Zm1.661 0h-1.661v1.661h1.66v-1.66Z"/><path fill="#C6064C" d="M47.474 9.275h-1.661v1.661h1.66v-1.66Zm1.66.831a.83.83 0 0 0-.83-.83h-.83v1.66h.83a.83.83 0 0 0 .83-.83Zm4.983 0a.83.83 0 0 0-1.661 0v.83h1.66v-.83Zm3.321 0a.83.83 0 1 0-1.66 0v.83h1.66v-.83Zm3.322-.831a1.66 1.66 0 0 0-1.66 1.661h1.66v-1.66Zm1.66 0h-1.66v1.661h1.66v-1.66Zm1.662 0H62.42v1.661h1.66v-1.66Zm1.66 0h-1.66v1.661h1.66v-1.66Zm1.661 0h-1.66v1.661h1.66v-1.66Zm1.661 0h-1.66v1.661h1.66v-1.66Zm1.661 1.661a1.66 1.66 0 0 0-1.661-1.66v1.66h1.66Zm-59.789 0h-1.66v1.661h1.66v-1.66Zm9.964 0h-1.66v1.661h1.66v-1.66Zm6.644 0h-1.66v1.661h1.66v-1.66Zm1.661 0h-1.66v1.661h1.66v-1.66Zm1.661 0h-1.661v1.661h1.66v-1.66Zm3.321 0h-1.66v1.661h1.66v-1.66Zm1.661 1.661a1.66 1.66 0 0 0-1.66-1.66v1.66h1.66Zm8.304-1.661h-1.66v1.661h1.66v-1.66Zm8.304 0a1.66 1.66 0 0 0-1.66 1.661h1.66v-1.66Zm1.661 0h-1.661v1.661h1.66v-1.66Zm3.321 0h-1.66v.83a.83.83 0 0 0 1.66 0v-.83Zm3.322 0H59.1v1.661h1.66v-1.66Zm9.965 0h-1.661v1.661h1.66v-1.66Zm-59.789 1.661h-1.66v1.66h1.66v-1.66Zm3.322 0a1.66 1.66 0 0 0-1.661 1.66h1.66v-1.66Zm1.661 0h-1.661v1.66h1.66v-1.66Zm1.661 1.661a1.66 1.66 0 0 0-1.661-1.661v1.66h1.66Zm3.32-1.661h-1.66v1.66h1.66v-1.66Zm3.323.83a.83.83 0 1 0-.83.83h.83v-.83Zm3.321-.83h-1.66v1.66a1.66 1.66 0 0 0 1.66-1.66Zm3.322 0h-1.661v1.66h1.66v-1.66Zm1.66 0h-1.66v1.66h1.66v-1.66Zm1.661 0h-1.66v1.66h1.66v-1.66Zm3.322 0h-1.66c0 .917.743 1.66 1.66 1.66v-1.66Zm1.661 0h-1.661v1.66h1.66v-1.66Zm1.66 0h-1.66v1.66h1.66v-1.66Zm1.661 0h-1.66v1.66h1.66v-1.66Zm1.661 0h-1.66v1.66h1.66v-1.66Zm1.661 1.661a1.66 1.66 0 0 0-1.661-1.661v1.66h1.66Zm4.982-1.661a1.66 1.66 0 0 0-1.66 1.66h1.66v-1.66Zm1.661 0h-1.66v1.66h1.66v-1.66Z"/><path fill="#C6064C" d="M54.117 12.597h-1.661v1.66h1.66v-1.66Zm6.643 0H59.1v1.66h1.66v-1.66Zm3.322 0a1.66 1.66 0 0 0-1.661 1.66h1.66v-1.66Zm1.66 0h-1.66v1.66h1.66v-1.66Zm1.661 1.661a1.66 1.66 0 0 0-1.66-1.661v1.66h1.66Zm3.322-1.661h-1.661v1.66h1.66v-1.66Zm-59.789 1.661h-1.66v1.66h1.66v-1.66Zm3.322 0h-1.661v1.66h1.66v-1.66Zm1.661 0h-1.661v1.66h1.66v-1.66Zm1.661 0h-1.661v1.66h1.66v-1.66Zm3.32 0h-1.66v1.66h1.66v-1.66Zm4.983 0h-1.66v1.66h1.66v-1.66Zm4.983 0h-1.661v1.66h1.66v-1.66Zm1.66 0h-1.66v1.66h1.66v-1.66Zm1.661 0h-1.66v1.66h1.66v-1.66Zm4.983 0h-1.661v1.66h1.66v-1.66Zm4.982 0h-1.66v1.66h1.66v-1.66Zm3.322 1.661a1.66 1.66 0 0 0-1.661-1.661v1.66h1.66Zm3.321-1.661h-1.66c0 .917.743 1.66 1.66 1.66v-1.66Zm1.661 0h-1.66v1.66h1.66v-1.66Zm1.661 0h-1.661v1.66h1.66v-1.66Zm1.661 0h-1.661v1.66h1.66v-1.66Zm1.66.83a.83.83 0 0 0-.83-.83h-.83v1.66h.83a.83.83 0 0 0 .83-.83Zm3.322-.83H59.1v1.66h1.66v-1.66Zm3.322 0H62.42v1.66h1.66v-1.66Zm1.66 0h-1.66v1.66h1.66v-1.66Zm1.661 0h-1.66v1.66h1.66v-1.66Zm3.322 0h-1.661v1.66h1.66v-1.66Zm-59.789 1.661h-1.66v1.66h1.66v-1.66Zm3.322 0h-1.661c0 .917.744 1.66 1.66 1.66v-1.66Zm1.661 0h-1.661v1.66h1.66v-1.66Zm1.661 0h-1.661v1.66a1.66 1.66 0 0 0 1.66-1.66Zm3.32 0h-1.66v1.66h1.66v-1.66Zm4.983 0h-1.66v1.66h1.66v-1.66Zm1.661 0h-1.66v1.66h1.66v-1.66Zm1.661 0h-1.66v1.66h1.66v-1.66Zm1.661 0h-1.661v1.66h1.66v-1.66Zm1.66 0h-1.66v1.66a1.66 1.66 0 0 0 1.66-1.66Zm3.322 1.661a1.66 1.66 0 0 0-1.66-1.661v1.66h1.66Zm3.322-1.661h-1.661v1.66h1.66v-1.66Zm1.66 0h-1.66v1.66h1.66v-1.66Zm1.661 0h-1.66v1.66a1.66 1.66 0 0 0 1.66-1.66Zm3.322 0h-1.661c0 .917.744 1.66 1.66 1.66v-1.66Z"/><path fill="#C6064C" d="M47.474 15.919h-1.661v1.66h1.66v-1.66Zm6.643 0h-1.661v.83a.83.83 0 1 0 1.66 0v-.83Zm6.643 0H59.1v1.66h1.66v-1.66Zm3.322 0H62.42c0 .917.743 1.66 1.66 1.66v-1.66Zm1.66 0h-1.66v1.66h1.66v-1.66Zm1.661 0h-1.66v1.66a1.66 1.66 0 0 0 1.66-1.66Zm3.322 0h-1.661v1.66h1.66v-1.66ZM10.936 17.58h-1.66v1.66h1.66v-1.66Zm9.964 0h-1.66v1.66h1.66v-1.66Zm4.983 0h-1.66v1.66h1.66v-1.66Zm3.322 0h-1.66v1.66h1.66v-1.66Zm1.661 0h-1.661v1.66h1.66v-1.66Zm4.982 0h-1.66v1.66h1.66v-1.66Zm1.661 0h-1.66v1.66h1.66v-1.66Zm1.661 0h-1.661v1.66h1.66v-1.66Zm8.304 0h-1.661v1.66h1.66v-1.66Zm1.66 0h-1.66v1.66h1.66v-1.66Zm1.661 1.66a1.66 1.66 0 0 0-1.66-1.66v1.66h1.66Zm9.965-1.66H59.1v1.66h1.66v-1.66Zm9.965 0h-1.661v1.66h1.66v-1.66Zm-59.789 1.66h-1.66c0 .917.743 1.66 1.66 1.66v-1.66Zm1.661 0h-1.66v1.66h1.66v-1.66Zm1.661 0h-1.661v1.66h1.66v-1.66Zm1.661 0h-1.661v1.66h1.66v-1.66Z"/><path fill="#C6064C" d="M17.58 19.24h-1.661v1.66h1.66v-1.66Zm1.66 0h-1.66v1.66h1.66v-1.66Zm1.66 0h-1.66v1.66a1.66 1.66 0 0 0 1.66-1.66Zm3.323 0a1.66 1.66 0 0 0-1.661 1.66h1.66v-1.66Zm3.321 0h-1.66v1.66h1.66v-1.66Zm3.322 0h-1.661v1.66a1.66 1.66 0 0 0 1.66-1.66Zm3.321 0h-.83a.83.83 0 1 0 .83.83v-.83Zm3.322 0h-1.66c0 .917.743 1.66 1.66 1.66v-1.66Zm3.321 1.66a1.66 1.66 0 0 0-1.66-1.66v1.66h1.66Zm3.322-.83a.83.83 0 0 0-1.66 0v.83h1.66v-.83Zm3.322-.83h-1.661v1.66a1.66 1.66 0 0 0 1.66-1.66Zm3.321 0h-1.66c0 .917.743 1.66 1.66 1.66v-1.66Zm3.322.83a.83.83 0 0 0-1.661 0v.83h1.66v-.83Zm3.321 0a.83.83 0 1 0-1.66 0v.83h1.66v-.83Zm3.322-.83H59.1c0 .917.743 1.66 1.66 1.66v-1.66Zm1.66 0h-1.66v1.66h1.66v-1.66Zm1.662 0H62.42v1.66h1.66v-1.66Zm1.66 0h-1.66v1.66h1.66v-1.66Zm1.661 0h-1.66v1.66h1.66v-1.66Zm1.661 0h-1.66v1.66h1.66v-1.66Zm1.661 0h-1.661v1.66a1.66 1.66 0 0 0 1.66-1.66ZM24.223 20.9h-1.661v.831a.83.83 0 0 0 1.66 0v-.83Zm3.321 0h-1.66a1.66 1.66 0 0 0 1.66 1.662V20.9Zm1.661 0h-1.66v1.662h1.66V20.9Zm9.965 0h-1.661v1.662h1.66V20.9Zm3.321 0h-1.66v.831a.83.83 0 0 0 1.66 0v-.83Zm3.322 0h-1.661v1.662h1.66V20.9Zm6.643 0h-1.66v1.662h1.66V20.9Z"/><path fill="#C6064C" d="M54.117 20.9h-1.661v1.662a1.66 1.66 0 0 0 1.66-1.661Zm3.321 0h-1.66v1.662h1.66V20.9Zm-46.502 2.492a.83.83 0 0 0-1.66 0v.83h1.66v-.83Zm3.322 0a.83.83 0 0 0-1.661 0v.83h.83a.83.83 0 0 0 .83-.83Zm4.982-.83h-.83a.83.83 0 0 0 0 1.66h.83v-1.66Zm1.66 1.661a1.66 1.66 0 0 0-1.66-1.661v1.66h1.66Zm8.305-1.661h-1.66v.83a.83.83 0 0 0 1.66 0v-.83Zm3.321.83a.83.83 0 1 0-1.66 0 .83.83 0 0 0 1.66 0Zm3.322-.83h-.83a.83.83 0 1 0 0 1.66h.83v-1.66Zm1.661 0h-1.66v1.66h1.66v-1.66Zm1.661 0h-1.661v1.66h1.66v-1.66Zm6.643 0h-1.661v1.66h1.66v-1.66Zm1.661 0h-1.661v1.66h1.66v-1.66Zm1.66 0h-1.66v1.66h1.66v-1.66Zm1.661 0h-1.66v1.66h1.66v-1.66Zm6.643 0h-1.66v1.66h1.66v-1.66Zm1.662 0h-1.662v1.66H59.1v-1.66Zm1.66.83a.83.83 0 0 0-.83-.83h-.83v1.66h.83a.83.83 0 0 0 .83-.83Zm6.643 0a.83.83 0 1 0-1.66 0 .83.83 0 0 0 1.66 0Zm3.322 0a.83.83 0 1 0-1.661 0 .83.83 0 0 0 1.66 0Zm-59.789.831h-1.66c0 .917.743 1.66 1.66 1.66v-1.66Zm1.661 0h-1.66v1.66a1.66 1.66 0 0 0 1.66-1.66Zm9.965 1.66a1.66 1.66 0 0 0-1.661-1.66v1.66h1.66Zm16.608-1.66h-1.661v1.66h1.66v-1.66Zm3.321 0h-.83a.83.83 0 0 0 0 1.66h.83v-1.66Zm1.661 0h-1.66v1.66h1.66v-1.66Zm1.661 0h-1.661v1.66h1.66v-1.66Zm1.661 0h-1.661v1.66h1.66v-1.66Zm1.66 0h-1.66v1.66h1.66v-1.66Zm1.661 0h-1.66v1.66h1.66v-1.66Zm3.322 0a1.66 1.66 0 0 0-1.661 1.66h1.66v-1.66Zm1.661 0h-1.661v1.66h1.66v-1.66Zm1.66 0h-1.66v1.66h1.66v-1.66Zm6.644.83a.83.83 0 0 0-1.661 0v.83h1.66v-.83Zm-48.163.83a1.66 1.66 0 0 0-1.661 1.661h1.66v-1.66Z"/><path fill="#C6064C" d="M17.58 25.883h-1.661v1.661h1.66v-1.66Zm1.66 0h-1.66v1.661h1.66v-1.66Zm1.66 0h-1.66v1.661a1.66 1.66 0 0 0 1.66-1.66Zm3.323 1.661a1.66 1.66 0 0 0-1.661-1.66c0 .916.743 1.66 1.66 1.66Zm4.982-1.661h-.83a.83.83 0 0 0 0 1.661h.83v-1.66Zm1.661 0h-1.661v1.661h1.66v-1.66Zm1.66 0h-1.66v1.661h1.66v-1.66Zm1.661.831a.83.83 0 0 0-.83-.83h-.83v1.66h.83a.83.83 0 0 0 .83-.83Zm3.322-.831a1.66 1.66 0 0 0-1.661 1.661h1.66v-1.66Zm1.661 0h-1.661v1.661h1.66v-1.66Zm6.643 0h-1.661v1.661h1.66v-1.66Z"/><path fill="#C6064C" d="M47.474 25.883h-1.661v1.661h1.66v-1.66Zm4.982 0h-1.66v.83a.83.83 0 0 0 1.66 0v-.83Zm4.982 0h-1.66v1.661h1.66v-1.66Zm1.662 0h-1.662v1.661H59.1v-1.66Zm1.66 1.661a1.66 1.66 0 0 0-1.66-1.66v1.66h1.66Zm3.322-1.661H62.42v1.661h1.66v-1.66Zm1.66.831a.83.83 0 0 0-.83-.83h-.83v1.66h.83a.83.83 0 0 0 .83-.83Zm4.983 0a.83.83 0 1 0-1.661 0 .83.83 0 0 0 1.66 0Zm-59.789.83h-.83a.83.83 0 0 0 0 1.66h.83v-1.66Zm1.661.831a.83.83 0 0 0-.83-.83h-.83v1.66h.83a.83.83 0 0 0 .83-.83Zm3.322-.831h-1.661v1.66h1.66v-1.66Zm9.964 1.661a1.66 1.66 0 0 0-1.66-1.66v1.66h1.66Zm11.626-1.661h-1.661c0 .917.744 1.66 1.66 1.66v-1.66Zm3.321 1.661a1.66 1.66 0 0 0-1.66-1.66v1.66h1.66Zm4.983-1.661h-1.661v1.66h1.66v-1.66Zm1.661 0h-1.661v1.66h1.66v-1.66Zm1.66 1.661a1.66 1.66 0 0 0-1.66-1.66v1.66h1.66Zm6.644-1.661a1.66 1.66 0 0 0-1.661 1.66h1.66v-1.66Zm3.322 0h-1.662v1.66H59.1v-1.66Zm1.66 0H59.1v1.66a1.66 1.66 0 0 0 1.66-1.66Zm3.322 0H62.42v1.66h1.66v-1.66Zm-48.163 1.661h-1.661v1.66h1.66v-1.66Zm1.661 0h-1.661v1.66h1.66v-1.66Zm1.66 0h-1.66v1.66h1.66v-1.66Zm1.66 1.661a1.66 1.66 0 0 0-1.66-1.661v1.66h1.66Zm4.983-1.661h-1.66v1.66h1.66v-1.66Zm1.661 0h-1.66v1.66h1.66v-1.66Zm1.661 1.661a1.66 1.66 0 0 0-1.66-1.661v1.66h1.66Zm3.321-.831a.83.83 0 0 0-1.66 0v.83h1.66v-.83Zm6.644-.83h-1.661v1.66h1.66v-1.66Zm3.321 0h-1.66v1.66h1.66v-1.66Zm1.661 0h-1.66v1.66h1.66v-1.66Zm4.982 0h-1.66v1.66h1.66v-1.66Zm1.661 1.661a1.66 1.66 0 0 0-1.66-1.661v1.66h1.66Zm3.322-1.661a1.66 1.66 0 0 0-1.661 1.66h1.66v-1.66Zm1.661 0h-1.661v1.66h1.66v-1.66Zm1.66 0h-1.66v1.66h1.66v-1.66Zm1.662 0h-1.662v1.66H59.1v-1.66Zm4.982 0H62.42c0 .917.743 1.66 1.66 1.66v-1.66Zm1.66 0h-1.66v1.66h1.66v-1.66Zm1.661.83a.83.83 0 0 0-.83-.83h-.83v1.66h.83a.83.83 0 0 0 .83-.83Zm3.322 0a.83.83 0 1 0-1.661 0 .83.83 0 0 0 1.66 0Zm-54.806.831h-1.661v1.66h1.66v-1.66Zm1.661 0h-1.661v1.66h1.66v-1.66Zm4.982 0H20.9v1.66h1.66v-1.66Zm1.661 0h-1.661v1.66h1.66v-1.66Zm1.66 0h-1.66v1.66h1.66v-1.66Zm1.661 0h-1.66v1.66h1.66v-1.66Zm3.322 0h-1.661v1.66h1.66v-1.66Zm3.321 0h-1.66v1.66h1.66v-1.66Zm1.661 0h-1.66v1.66h1.66v-1.66Zm1.661 0h-1.66v1.66h1.66v-1.66Zm1.661 0h-1.661v1.66h1.66v-1.66Zm3.321 0h-1.66c0 .917.743 1.66 1.66 1.66v-1.66Zm3.322 0h-1.661v1.66h1.66v-1.66Z"/><path fill="#C6064C" d="M47.474 30.866h-1.661v1.66a1.66 1.66 0 0 0 1.66-1.66Zm4.982 0h-1.66v1.66h1.66v-1.66Zm3.322 0h-1.661c0 .917.743 1.66 1.66 1.66v-1.66Zm1.66 0h-1.66v1.66h1.66v-1.66Zm1.662 0h-1.662v1.66H59.1v-1.66Zm1.66 1.66a1.66 1.66 0 0 0-1.66-1.66v1.66h1.66Zm-46.502 0a1.66 1.66 0 0 0-1.661 1.661h1.66v-1.66Zm3.322 0h-1.661v1.661h1.66v-1.66Zm1.66 0h-1.66v1.661h1.66v-1.66Zm1.66 0h-1.66v1.661a1.66 1.66 0 0 0 1.66-1.66Zm6.644 0h-1.66a1.66 1.66 0 0 0 1.66 1.661v-1.66Zm1.661 0h-1.66v1.661h1.66v-1.66Zm1.661 0h-1.661v1.661h1.66v-1.66Zm1.66 0h-1.66v1.661h1.66v-1.66Zm1.661 0h-1.66v1.661h1.66v-1.66Zm1.661 0h-1.66v1.661h1.66v-1.66Zm3.322 0h-1.661v1.661h1.66v-1.66Zm4.982 0h-1.66v1.661h1.66v-1.66Zm8.304 0h-1.66v1.661a1.66 1.66 0 0 0 1.66-1.66Zm6.644 0h-1.662v1.661H59.1v-1.66Zm3.32 0h-1.66v1.661h1.66v-1.66Zm1.662.831a.83.83 0 0 0-.83-.83h-.831v1.66h.83a.83.83 0 0 0 .83-.83Zm3.321 0a.83.83 0 1 0-1.66 0v.83h1.66v-.83Zm3.322 0a.83.83 0 1 0-1.661 0v.83h1.66v-.83Zm-59.789.83h-.83a.83.83 0 1 0 0 1.661h.83v-1.66Zm1.661 0h-1.66v1.661h1.66v-1.66Zm1.661 0h-1.661v1.661a1.66 1.66 0 0 0 1.66-1.66Zm3.322 0h-1.661v1.661h1.66v-1.66Zm1.66 0h-1.66v1.661h1.66v-1.66Zm4.983.831a.83.83 0 1 0-1.661 0v.83h1.66v-.83Zm4.982-.831h-1.66v1.661h1.66v-1.66Zm3.321 0h-1.66v1.661h1.66v-1.66Zm1.661 0h-1.66v1.661h1.66v-1.66Zm1.661 0h-1.66v1.661h1.66v-1.66Zm1.661 0h-1.66v1.661a1.66 1.66 0 0 0 1.66-1.66Zm3.321.831a.83.83 0 0 0-.83-.83h-.83v.83a.83.83 0 0 0 1.66 0Zm3.322-.831h-1.66a1.66 1.66 0 0 0 1.66 1.661v-1.66Zm1.661 0h-1.661v1.661h1.66v-1.66Zm1.661 1.661a1.66 1.66 0 0 0-1.661-1.66v1.66h1.66Zm3.321-1.661a1.66 1.66 0 0 0-1.66 1.661h1.66v-1.66Zm4.983.831a.83.83 0 1 0-1.661 0v.83h1.66v-.83Zm3.322-.831h-1.662v1.661H59.1v-1.66Zm1.66 0H59.1v1.661h1.66v-1.66Zm6.643 0h-1.66v.83a.83.83 0 0 0 1.66 0v-.83Zm3.322 0h-1.661v1.661h1.66v-1.66Zm-58.128 1.661h-1.66v1.66h1.66v-1.66Zm4.983 0h-1.661v1.66h1.66v-1.66Zm1.66 0h-1.66v1.66h1.66v-1.66Zm1.66 0h-1.66v1.66h1.66v-1.66Zm1.662 0H20.9v1.66h1.66v-1.66Zm1.661 0h-1.661v1.66h1.66v-1.66Zm1.66 0h-1.66v1.66h1.66v-1.66Zm1.661 0h-1.66v1.66h1.66v-1.66Zm1.661 0h-1.66v1.66h1.66v-1.66Zm1.661 0h-1.661v1.66h1.66v-1.66Zm1.66 0h-1.66v1.66h1.66v-1.66Zm1.661 0h-1.66v1.66h1.66v-1.66Zm1.661 0h-1.66v1.66h1.66v-1.66Zm9.965 0h-1.661c0 .917.744 1.66 1.66 1.66v-1.66Zm3.321 0h-1.66v1.66h1.66v-1.66Zm1.661 0h-1.66v1.66h1.66v-1.66Zm1.661 0h-1.66v1.66h1.66v-1.66Z"/><path fill="#C6064C" d="M54.117 35.848h-1.661v1.66h1.66v-1.66Zm1.661 0h-1.661v1.66h1.66v-1.66Zm1.66 0h-1.66v1.66h1.66v-1.66Zm1.662 0h-1.662v1.66H59.1v-1.66Zm1.66 0H59.1v1.66h1.66v-1.66Zm9.965 0h-1.661v.83a.83.83 0 1 0 1.66 0v-.83Zm-59.789 1.661a1.66 1.66 0 0 0-1.66 1.66h1.66v-1.66Zm3.322 0h-1.661v1.66h1.66v-1.66Zm1.661 0h-1.661v1.66h1.66v-1.66Zm1.661 0h-1.661v1.66h1.66v-1.66Zm6.643 0h-1.661v1.66h1.66v-1.66Zm1.66 0h-1.66v1.66h1.66v-1.66Zm6.643 0h-1.66v.83a.83.83 0 1 0 1.66 0v-.83Zm3.322 0h-1.66c0 .917.743 1.66 1.66 1.66v-1.66Zm1.661 0h-1.66v1.66h1.66v-1.66Zm1.661 1.661a1.66 1.66 0 0 0-1.661-1.661v1.66h1.66Zm8.304-1.661h-1.661v1.66h1.66v-1.66Zm3.321 0h-1.66v1.66h1.66v-1.66Zm1.661 0h-1.66v1.66h1.66v-1.66Zm1.661 0h-1.661v1.66h1.66v-1.66Zm4.983 0h-1.662v.83a.83.83 0 1 0 1.661 0v-.83Zm3.32 0h-1.66c0 .917.744 1.66 1.66 1.66v-1.66Zm1.662.831a.83.83 0 0 0-.83-.831h-.831v1.66h.83a.83.83 0 0 0 .83-.83Zm-53.146.83h-1.66v1.66h1.66v-1.66Zm1.661 0h-1.66v1.66h1.66v-1.66Zm1.661 0h-1.661v1.66h1.66v-1.66Zm1.661 0h-1.661v1.66h1.66v-1.66Zm1.661 0h-1.661v1.66a1.66 1.66 0 0 0 1.66-1.66Zm3.32 0h-.83a.83.83 0 0 0 0 1.66h.83v-1.66Zm1.662 0H20.9v1.66h1.66v-1.66Zm1.661 0h-1.661v1.66h1.66v-1.66Zm1.66 0h-1.66v1.66h1.66v-1.66Zm3.322.83a.83.83 0 0 0-1.66 0v.83h1.66V40Zm11.625-.83h-1.66c0 .917.743 1.66 1.66 1.66v-1.66Zm1.661 0h-1.66v1.66h1.66v-1.66Zm1.661 1.66a1.66 1.66 0 0 0-1.66-1.66v1.66h1.66Zm3.322-1.66h-1.661v1.66h1.66v-1.66Zm1.66 0h-1.66v1.66h1.66v-1.66Zm1.661 0h-1.66v1.66h1.66v-1.66Zm1.661 0h-1.66v1.66h1.66v-1.66Zm3.322 1.66a1.66 1.66 0 0 0-1.661-1.66v1.66h1.66Zm11.625-1.66a1.66 1.66 0 0 0-1.66 1.66h1.66v-1.66Zm1.661 1.66a1.66 1.66 0 0 0-1.66-1.66v1.66h1.66Zm-58.128 0h-1.66a1.66 1.66 0 0 0 1.66 1.661v-1.66Zm1.661 0h-1.66v1.661a1.66 1.66 0 0 0 1.66-1.66Zm3.322 0h-1.661v1.661h1.66v-1.66Zm8.304 0h-1.661v1.661a1.66 1.66 0 0 0 1.66-1.66Zm3.321 0h-1.66v.83a.83.83 0 0 0 1.66 0v-.83Zm3.322 0h-1.661a1.66 1.66 0 0 0 1.66 1.661v-1.66Zm1.66 0h-1.66v1.661h1.66v-1.66Zm1.661 0h-1.66v1.661h1.66v-1.66Zm1.661 1.661a1.66 1.66 0 0 0-1.66-1.66v1.66h1.66Zm6.643-1.661h-1.66v1.661h1.66v-1.66Zm3.322 0h-1.661v1.661h1.66v-1.66Zm1.661 0h-1.661v1.661h1.66v-1.66Zm3.321 0h-1.66v1.661h1.66v-1.66Zm3.322 0h-1.661v.83a.83.83 0 1 0 1.66 0v-.83Zm3.321 0h-1.66a1.66 1.66 0 0 0 1.66 1.661v-1.66Zm1.662 0h-1.662v1.661H59.1v-1.66Zm1.66 0H59.1v1.661h1.66v-1.66Zm1.66 1.661a1.66 1.66 0 0 0-1.66-1.66v1.66h1.66Zm3.322-1.661h-.83a.83.83 0 0 0 0 1.661h.83v-1.66Zm1.661 0h-1.66v1.661h1.66v-1.66Zm3.322 1.661a1.66 1.66 0 0 0-1.661-1.66v1.66h1.66Zm-54.806 0h-1.661v1.661h1.66v-1.66Zm4.981 0a1.66 1.66 0 0 0-1.66 1.661h1.66v-1.66Zm1.662 0H20.9v1.661a1.66 1.66 0 0 0 1.66-1.66Zm9.964 0h-1.66v.83a.83.83 0 0 0 1.66 0v-.83Zm3.322 0h-1.66a1.66 1.66 0 0 0 1.66 1.661v-1.66Zm1.661 0h-1.66v1.661h1.66v-1.66Zm1.661 0h-1.661v1.661h1.66v-1.66Zm1.66 0h-1.66v1.661h1.66v-1.66Zm1.661 0h-1.66v1.661h1.66v-1.66Zm1.661 0h-1.66v1.661h1.66v-1.66Zm1.661 0h-1.661v1.661h1.66v-1.66Z"/><path fill="#C6064C" d="M47.474 42.491h-1.661v1.661h1.66v-1.66Zm3.321 0h-1.66v.83a.83.83 0 0 0 1.66 0v-.83Zm8.305 0h-1.662v.83a.83.83 0 0 0 1.661 0v-.83Zm3.32 0h-1.66v.83a.83.83 0 0 0 1.66 0v-.83Zm6.644 0h-1.66v1.661h1.66v-1.66Zm1.661 0h-1.661v1.661a1.66 1.66 0 0 0 1.66-1.66Zm-59.789 1.661h-.83a.83.83 0 0 0 0 1.66h.83v-1.66Zm1.661 0h-1.66v1.66h1.66v-1.66Zm1.661 0h-1.661v1.66h1.66v-1.66Zm1.661 0h-1.661v1.66h1.66v-1.66Zm1.661 0h-1.661v1.66h1.66v-1.66Zm1.66 0h-1.66v1.66h1.66v-1.66Zm6.643.83a.83.83 0 0 0-1.66 0v.83h1.66v-.83Zm14.947-.83h-1.66v1.66h1.66v-1.66Zm6.644 0h-1.661v1.66h1.66v-1.66Zm6.643.83a.83.83 0 0 0-1.661 0v.83h1.66v-.83Zm13.286-.83a1.66 1.66 0 0 0-1.66 1.66h1.66v-1.66Zm-53.145 1.661h-1.661v1.66h1.66v-1.66Zm3.322 0h-1.661v1.66a1.66 1.66 0 0 0 1.66-1.66Zm3.32 0h-1.66c0 .917.744 1.66 1.66 1.66v-1.66Zm1.662 0H20.9v1.66h1.66v-1.66Zm1.661 0h-1.661v1.66h1.66v-1.66Zm1.66 0h-1.66v1.66h1.66v-1.66Zm3.322.83a.83.83 0 0 0-1.66 0v.83h1.66v-.83Zm4.982 0a.83.83 0 0 0-1.66 0v.83h1.66v-.83Zm3.322-.83a1.66 1.66 0 0 0-1.661 1.66h1.66v-1.66Zm1.661 0h-1.661v1.66h1.66v-1.66Zm1.66 0h-1.66v1.66h1.66v-1.66Zm1.661 1.661a1.66 1.66 0 0 0-1.66-1.661v1.66h1.66Zm3.322-1.661a1.66 1.66 0 0 0-1.661 1.66h1.66v-1.66Zm1.661 0h-1.661v1.66h1.66v-1.66Zm1.66 0h-1.66v1.66h1.66v-1.66Zm1.661 0h-1.66v1.66h1.66v-1.66Zm1.661 0h-1.66v1.66h1.66v-1.66Zm1.661 0h-1.661v1.66h1.66v-1.66Zm4.983 0a1.66 1.66 0 0 0-1.662 1.66H59.1v-1.66Zm1.66 0H59.1v1.66h1.66v-1.66Zm1.66 0h-1.66v1.66h1.66v-1.66Zm1.662 0H62.42v1.66h1.66v-1.66Zm1.66 0h-1.66v1.66h1.66v-1.66Zm1.661 0h-1.66v1.66h1.66v-1.66Zm3.322.83a.83.83 0 0 0-1.661 0v.83h1.66v-.83Zm-56.467.831h-1.661v1.66h1.66v-1.66Zm1.661 0h-1.661v1.66h1.66v-1.66Zm6.643 0H20.9v1.66h1.66v-1.66Zm1.661 0h-1.661v1.66h1.66v-1.66Zm1.66 0h-1.66v1.66h1.66v-1.66Zm1.661 0h-1.66v1.66h1.66v-1.66Zm3.322 0h-1.661v1.66h1.66v-1.66Zm1.66 0h-1.66v1.66h1.66v-1.66Zm1.661 0h-1.66v1.66h1.66v-1.66Zm1.661 0h-1.66v1.66h1.66v-1.66Zm3.322 0h-1.661c0 .917.743 1.66 1.66 1.66v-1.66Zm1.66 0h-1.66v1.66h1.66v-1.66Zm3.322 0h-1.66v1.66h1.66v-1.66Zm1.661 0h-1.661v1.66h1.66v-1.66Z"/><path fill="#C6064C" d="M47.474 47.474h-1.661v1.66h1.66v-1.66Zm4.982 0h-1.66c0 .917.743 1.66 1.66 1.66v-1.66Zm1.661 0h-1.661v1.66h1.66v-1.66Zm1.661 0h-1.661v1.66h1.66v-1.66Zm1.66 0h-1.66v1.66h1.66v-1.66Zm1.662 0h-1.662v1.66H59.1v-1.66Zm1.66 0H59.1v1.66h1.66v-1.66Zm1.66 0h-1.66v1.66h1.66v-1.66Zm3.322 0h-1.66c0 .917.743 1.66 1.66 1.66v-1.66Zm1.661 0h-1.66v1.66h1.66v-1.66Zm3.322 0h-1.661v1.66h1.66v-1.66Zm-59.789 2.491a.83.83 0 0 0-1.66 0v.83h1.66v-.83Zm3.322-.831h-1.661v1.661h1.66v-1.66Zm1.661 0h-1.661v1.661h1.66v-1.66Zm4.981 0a1.66 1.66 0 0 0-1.66 1.661h1.66v-1.66Zm1.662 0H20.9v1.661a1.66 1.66 0 0 0 1.66-1.66Zm6.643 0h-1.66v1.661h1.66v-1.66Zm1.661 0h-1.661v1.661h1.66v-1.66Zm1.66 0h-1.66v1.661h1.66v-1.66Zm3.322 0h-1.66v.83a.83.83 0 1 0 1.66 0v-.83Zm4.982 0h-1.66v1.661h1.66v-1.66Zm1.661 0h-1.66v1.661h1.66v-1.66Zm1.661 0h-1.66v1.661h1.66v-1.66Zm4.982.831a.83.83 0 0 0-.83-.83h-.83v.83a.83.83 0 0 0 1.66 0Zm4.983-.831h-1.661v1.661h1.66v-1.66Zm1.661 0h-1.661v1.661h1.66v-1.66Zm1.66 0h-1.66v1.661h1.66v-1.66Zm1.662 0h-1.662v1.661H59.1v-1.66Zm3.32 0h-1.66v1.661a1.66 1.66 0 0 0 1.66-1.66Zm4.983 0h-1.66a1.66 1.66 0 0 0 1.66 1.661v-1.66Zm1.661 0h-1.66v1.661h1.66v-1.66Zm1.661 0h-1.661v1.661a1.66 1.66 0 0 0 1.66-1.66Zm-59.789 1.661h-1.66v1.661h1.66v-1.66Zm3.322 0h-1.661v1.661h1.66v-1.66Zm1.661 0h-1.661v1.661h1.66v-1.66Zm3.321 0a1.66 1.66 0 0 0-1.66 1.661h1.66v-1.66Zm6.643 0h-.83a.83.83 0 0 0 0 1.661h.83v-1.66Zm1.661 0h-1.66v1.661a1.66 1.66 0 0 0 1.66-1.66Zm4.982 0h-1.66v.83a.83.83 0 0 0 1.66 0v-.83Zm8.304 0h-1.66a1.66 1.66 0 0 0 1.66 1.661v-1.66Zm4.983.831a.83.83 0 0 0-.83-.83h-.831v1.66h.83a.83.83 0 0 0 .83-.83Zm6.643-.831h-.83a.83.83 0 1 0 .83.83v-.83Zm6.644 0h-1.662c0 .917.744 1.661 1.661 1.661v-1.66Zm1.66 0H59.1v1.661h1.66v-1.66Zm-49.824 1.661h-1.66v.83a.83.83 0 0 0 1.66 0v-.83Zm3.322 0h-1.661v1.66h1.66v-1.66Zm1.661 0h-1.661v1.66h1.66v-1.66Zm1.661 0h-1.661v1.66h1.66v-1.66Zm1.66 0h-1.66v1.66h1.66v-1.66Zm1.66 0h-1.66v1.66h1.66v-1.66Zm1.662 1.661a1.66 1.66 0 0 0-1.661-1.661v1.66h1.66Zm14.947-.831a.83.83 0 1 0-1.661 0v.83h1.66v-.83Zm4.982-.83h-1.66v1.66h1.66v-1.66Zm1.661 0h-1.66v1.66h1.66v-1.66Zm4.982.83a.83.83 0 1 0-1.66 0v.83h1.66v-.83Zm11.626-.83H59.1c0 .917.743 1.66 1.66 1.66v-1.66Zm1.66 1.661a1.66 1.66 0 0 0-1.66-1.661v1.66h1.66Zm4.983-1.661a1.66 1.66 0 0 0-1.66 1.66h1.66v-1.66Zm1.661.83a.83.83 0 0 0-.83-.83h-.83v1.66h.83a.83.83 0 0 0 .83-.83Zm-54.806.831h-1.661v1.66h1.66v-1.66Zm1.661 0h-1.661v1.66h1.66v-1.66Zm8.304 0h-1.661v1.66h1.66v-1.66Zm1.66 0h-1.66v1.66h1.66v-1.66Zm1.661 0h-1.66v1.66h1.66v-1.66Zm1.661 0h-1.66v1.66h1.66v-1.66Zm1.661 0h-1.661v1.66h1.66v-1.66Zm1.66 0h-1.66v1.66h1.66v-1.66Zm1.661.83a.83.83 0 0 0-.83-.83h-.83v1.66h.83a.83.83 0 0 0 .83-.83Zm3.322-.83h-1.661c0 .917.744 1.66 1.66 1.66v-1.66Zm1.661 0h-1.661v1.66h1.66v-1.66Zm1.66 0h-1.66v1.66h1.66v-1.66Zm1.661 0h-1.66v1.66h1.66v-1.66Zm3.322 0h-1.661v1.66h1.66v-1.66Zm1.661 0h-1.661v1.66h1.66v-1.66Zm1.66 0h-1.66v1.66h1.66v-1.66Zm3.322 0a1.66 1.66 0 0 0-1.66 1.66h1.66v-1.66Zm1.661 1.661a1.66 1.66 0 0 0-1.661-1.661v1.66h1.66Zm3.321-.831a.83.83 0 1 0-1.66 0v.83h1.66v-.83Zm6.644-.83H62.42v1.66h1.66v-1.66Zm1.66 0h-1.66v1.66h1.66v-1.66Zm1.661 0h-1.66v1.66h1.66v-1.66Zm-54.806 1.661h-.83a.83.83 0 0 0 0 1.66h.83v-1.66Zm1.661 0h-1.661v1.66h1.66v-1.66Zm1.661 0h-1.661v1.66a1.66 1.66 0 0 0 1.66-1.66Zm4.981.83a.83.83 0 1 0-1.66 0 .83.83 0 0 0 1.66 0Zm3.323-.83h-1.661c0 .917.743 1.66 1.66 1.66v-1.66Zm1.66 0h-1.66v1.66h1.66v-1.66Zm6.643 0h-1.66v1.66h1.66v-1.66Zm6.644 0h-1.661v1.66h1.66v-1.66Zm1.66 0h-1.66v1.66h1.66v-1.66Zm1.661 0h-1.66v1.66h1.66v-1.66Zm1.661 0h-1.66v1.66h1.66v-1.66Zm1.661 0h-1.661v1.66h1.66v-1.66Zm1.661 0h-1.661v1.66h1.66v-1.66Zm1.66 0h-1.66v1.66h1.66v-1.66Zm1.661 0h-1.66v1.66h1.66v-1.66Zm1.661 0h-1.66v1.66h1.66v-1.66Zm3.322 0h-1.661v1.66h1.66v-1.66Zm1.66 0h-1.66v1.66h1.66v-1.66Zm1.662 0h-1.662v1.66H59.1v-1.66Zm1.66 0H59.1v1.66h1.66v-1.66Zm1.66 0h-1.66v1.66h1.66v-1.66Zm1.662 0H62.42v1.66h1.66v-1.66Zm1.66 0h-1.66v1.66h1.66v-1.66Zm1.661 0h-1.66v1.66h1.66v-1.66Zm1.661 0h-1.66v1.66h1.66v-1.66Zm1.661 1.66a1.66 1.66 0 0 0-1.661-1.66v1.66h1.66Zm-43.181 0h-1.66V59.1h1.66v-1.66Zm1.661 1.662a1.66 1.66 0 0 0-1.66-1.662V59.1h1.66Zm3.321-1.662h-1.66V59.1h1.66v-1.66Zm1.661 0h-1.66V59.1h1.66v-1.66Zm1.661 0h-1.66V59.1h1.66v-1.66Zm1.661 0h-1.66V59.1h1.66v-1.66Zm3.321 0h-1.66V59.1h1.66v-1.66Zm4.983 0h-1.661V59.1h1.66v-1.66Zm3.321 0h-1.66a1.66 1.66 0 0 0 1.66 1.661v-1.66Zm3.322 0h-1.66V59.1h1.66v-1.66Zm1.661 0h-1.661V59.1h1.66v-1.66Zm3.321 0h-1.66V59.1h1.66v-1.66Zm6.644 0H62.42V59.1h1.66v-1.66Zm1.66 0h-1.66V59.1a1.66 1.66 0 0 0 1.66-1.66Zm4.983 0h-1.661V59.1h1.66v-1.66ZM10.936 59.1a1.66 1.66 0 0 0-1.66 1.66h1.66V59.1Zm1.661 0h-1.66v1.66h1.66V59.1Zm1.661 0h-1.661v1.66h1.66V59.1Zm1.661 0h-1.661v1.66h1.66V59.1Zm1.661 0h-1.661v1.66h1.66V59.1Zm1.66 0h-1.66v1.66h1.66V59.1Zm1.66 1.66a1.66 1.66 0 0 0-1.66-1.66v1.66h1.66Zm4.983-1.66a1.66 1.66 0 0 0-1.66 1.66h1.66V59.1Zm1.661 0h-1.66v1.66h1.66V59.1Zm3.322 0h-1.661v1.66h1.66V59.1Zm1.66 0h-1.66v1.66h1.66V59.1Zm4.983 0h-1.66l-.001 1.66h1.66V59.1Zm1.661 0h-1.661v1.66h1.66V59.1Zm1.66 0h-1.66v1.66h1.66V59.1Zm3.322 0a1.66 1.66 0 0 0-1.66 1.66h1.66V59.1Zm1.661 0h-1.661v1.66a1.66 1.66 0 0 0 1.66-1.66Zm4.982 0h-1.66v1.66h1.66V59.1Zm1.661 0h-1.66v1.66h1.66V59.1Zm1.661 0h-1.661v1.66h1.66V59.1Zm3.321 0h-1.66v1.66h1.66V59.1Zm3.322.83a.83.83 0 1 0-1.66 0 .83.83 0 0 0 1.66 0Zm3.322-.83H62.42v1.66h1.66V59.1Zm6.643 0h-1.661v1.66h1.66V59.1Zm-59.789 1.66h-1.66v1.66h1.66v-1.66Zm9.964 0h-1.66v1.66h1.66v-1.66Zm3.323 0h-.83a.83.83 0 0 0 0 1.66h.83v-1.66Zm1.66 0h-1.66v1.66h1.66v-1.66Zm3.322 0h-1.66v1.66h1.66v-1.66Zm1.661 0h-1.661v1.66h1.66v-1.66Zm1.66 0h-1.66v1.66a1.66 1.66 0 0 0 1.66-1.66Zm3.322 0a1.66 1.66 0 0 0-1.66 1.66h1.66v-1.66Zm1.661 0h-1.661v1.66h1.66v-1.66Zm1.661 0h-1.661v1.66h1.66v-1.66Zm3.321 0h-1.66v1.66h1.66v-1.66Zm1.661 0h-1.66v1.66a1.66 1.66 0 0 0 1.66-1.66Zm4.982 0a1.66 1.66 0 0 0-1.66 1.66h1.66v-1.66Zm1.661 0h-1.66v1.66h1.66v-1.66Zm1.661 0h-1.66v1.66h1.66v-1.66Zm1.661 0h-1.661v1.66h1.66v-1.66Zm1.661 0h-1.661v1.66h1.66v-1.66Zm1.66 0h-1.66v1.66h1.66v-1.66Zm6.644 0H62.42v1.66h1.66v-1.66Zm3.321.83a.83.83 0 0 0-1.66 0v.83h1.66v-.83Zm3.322-.83h-1.661v1.66a1.66 1.66 0 0 0 1.66-1.66Zm-59.789 1.66h-1.66v1.662h1.66V62.42Zm3.322 0a1.66 1.66 0 0 0-1.661 1.662h1.66V62.42Zm1.661 0h-1.661v1.662h1.66V62.42Zm1.661 1.662a1.66 1.66 0 0 0-1.661-1.661v1.66h1.66Zm3.32-1.662h-1.66v1.662h1.66V62.42Zm6.644 0h-1.66v1.662h1.66V62.42Zm1.661 0h-1.66v1.662h1.66V62.42Zm6.643 0h-1.66v1.662h1.66V62.42Zm4.982 0h-1.66v1.662h1.66V62.42Zm8.304 0h-1.66v1.662h1.66V62.42Zm4.983 0h-1.661v1.662h1.66V62.42Zm3.321 0h-1.66v1.662h1.66V62.42Zm1.662 0h-1.662v1.662H59.1V62.42Zm1.66 0H59.1v1.662h1.66V62.42Zm1.66 0h-1.66v1.662h1.66V62.42Zm1.662 0H62.42v1.662h1.66V62.42Zm1.66 0h-1.66v1.662h1.66V62.42Zm1.661 0h-1.66v1.662h1.66V62.42Zm1.661 0h-1.66v1.662h1.66V62.42Zm-58.128 1.662h-1.66v1.66h1.66v-1.66Zm3.322 0h-1.661v1.66h1.66v-1.66Zm1.661 0h-1.661v1.66h1.66v-1.66Z"/><path fill="#C6064C" d="M17.58 64.082h-1.661v1.66h1.66v-1.66Zm3.32 0h-1.66v1.66h1.66v-1.66Zm4.983 0a1.66 1.66 0 0 0-1.66 1.66h1.66v-1.66Zm3.322 0h-1.66v1.66h1.66v-1.66Zm1.661 0h-1.661v1.66h1.66v-1.66Zm1.66 0h-1.66v1.66h1.66v-1.66Zm1.661 0h-1.66v1.66h1.66v-1.66Zm1.661 0h-1.66v1.66a1.66 1.66 0 0 0 1.66-1.66Zm3.322 0h-.83a.83.83 0 0 0 0 1.66h.83v-1.66Zm3.321 0h-1.66v1.66h1.66v-1.66Zm1.661.83a.83.83 0 0 0-.83-.83h-.83v1.66h.83a.83.83 0 0 0 .83-.83Zm3.322-.83a1.66 1.66 0 0 0-1.661 1.66h1.66v-1.66Zm1.66 0h-1.66v1.66a1.66 1.66 0 0 0 1.66-1.66Zm3.322 0a1.66 1.66 0 0 0-1.66 1.66h1.66v-1.66Z"/><path fill="#C6064C" d="M54.117 64.082h-1.661v1.66a1.66 1.66 0 0 0 1.66-1.66Zm3.321 0h-1.66v.83a.83.83 0 0 0 1.66 0v-.83Zm8.304 0h-1.66v1.66h1.66v-1.66Zm3.322 0h-1.66v1.66h1.66v-1.66Zm1.661.83a.83.83 0 0 0-.83-.83h-.831v1.66h.83a.83.83 0 0 0 .83-.83Zm-59.789.83h-1.66v1.661h1.66v-1.66Zm3.322 0h-1.661c0 .917.744 1.661 1.66 1.661v-1.66Zm1.661 0h-1.661v1.661h1.66v-1.66Zm1.661 0h-1.661v1.661a1.66 1.66 0 0 0 1.66-1.66Zm3.32 0h-1.66v1.661h1.66v-1.66Zm3.323 0h-.83a.83.83 0 0 0 0 1.661h.83v-1.66Zm1.66 0h-1.66v1.661h1.66v-1.66Zm1.661 0h-1.66v1.661a1.66 1.66 0 0 0 1.66-1.66Zm6.643 0h-1.66v1.661h1.66v-1.66Zm6.643 0h-1.66v1.661a1.66 1.66 0 0 0 1.66-1.66Zm6.644 0h-1.661v1.661h1.66v-1.66Zm4.982 0h-1.66v.83a.83.83 0 0 0 1.66 0v-.83Zm13.286 0h-1.66v1.661h1.66v-1.66Zm1.661 0h-1.66v1.661a1.66 1.66 0 0 0 1.66-1.66Zm-56.467 1.661h-1.66v1.66h1.66v-1.66Zm9.964 0h-1.66v1.66h1.66v-1.66Zm4.983 0h-1.66v1.66h1.66v-1.66Zm8.304 0h-1.66v1.66h1.66v-1.66Zm3.322 0h-.83a.83.83 0 0 0 0 1.66h.83v-1.66Zm1.661 0h-1.661v1.66h1.66v-1.66Zm4.982 0h-.83a.83.83 0 0 0 0 1.66h.83v-1.66Zm1.661 0h-1.661v1.66h1.66v-1.66Zm3.321 1.661a1.66 1.66 0 0 0-1.66-1.66v1.66h1.66Zm6.644-1.661a1.66 1.66 0 0 0-1.661 1.66h1.66v-1.66Zm1.66 0h-1.66v1.66h1.66v-1.66Zm1.662 1.661a1.66 1.66 0 0 0-1.662-1.66v1.66H59.1Zm3.32-1.661a1.66 1.66 0 0 0-1.66 1.66h1.66v-1.66Zm1.662 0H62.42v1.66h1.66v-1.66Zm-53.146 1.661h-1.66c0 .917.743 1.66 1.66 1.66v-1.66Zm1.661 0h-1.66v1.66h1.66v-1.66Zm1.661 0h-1.661v1.66h1.66v-1.66Zm1.661 0h-1.661v1.66h1.66v-1.66Zm1.661 0h-1.661v1.66h1.66v-1.66Zm1.66 0h-1.66v1.66h1.66v-1.66Zm1.66 0h-1.66v1.66a1.66 1.66 0 0 0 1.66-1.66Zm3.323 0h-.83a.83.83 0 0 0 0 1.66h.83v-1.66Zm1.66 0h-1.66v1.66h1.66v-1.66Zm1.661.83a.83.83 0 0 0-.83-.83h-.83v1.66h.83a.83.83 0 0 0 .83-.83Zm3.322-.83h-.83a.83.83 0 0 0 0 1.66h.83v-1.66Zm1.66 0h-1.66v1.66h1.66v-1.66Zm1.661 0h-1.66v1.66a1.66 1.66 0 0 0 1.66-1.66Zm4.983 0h-1.661c0 .917.743 1.66 1.66 1.66v-1.66Zm1.66.83a.83.83 0 0 0-.83-.83h-.83v1.66H40a.83.83 0 0 0 .83-.83Zm4.983-.83h-1.661c0 .917.744 1.66 1.66 1.66v-1.66Zm1.661 0h-1.661v1.66a1.66 1.66 0 0 0 1.66-1.66Zm3.321 0h-1.66c0 .917.743 1.66 1.66 1.66v-1.66Zm1.661 0h-1.66v1.66h1.66v-1.66Zm1.661 0h-1.661v1.66a1.66 1.66 0 0 0 1.66-1.66Zm4.983 0h-1.662c0 .917.744 1.66 1.661 1.66v-1.66Zm1.66 0H59.1v1.66a1.66 1.66 0 0 0 1.66-1.66Zm3.322 0H62.42v.83a.83.83 0 0 0 1.66 0v-.83Zm3.321.83a.83.83 0 1 0-1.66 0 .83.83 0 0 0 1.66 0Zm3.322 0a.83.83 0 1 0-1.661 0 .83.83 0 0 0 1.66 0Z"/></g><rect width="79" height="79" x=".5" y=".5" stroke="#fff" rx="15.5"/></g><defs><clipPath id="b"><rect width="80" height="80" fill="#fff" rx="16"/></clipPath><filter id="a" width="80" height="94" x="0" y="-7" color-interpolation-filters="sRGB" filterUnits="userSpaceOnUse"><feFlood flood-opacity="0" result="BackgroundImageFix"/><feBlend in="SourceGraphic" in2="BackgroundImageFix" result="shape"/><feColorMatrix in="SourceAlpha" result="hardAlpha" values="0 0 0 0 0 0 0 0 0 0 0 0 0 0 0 0 0 0 127 0"/><feOffset dy="-7"/><feGaussianBlur stdDeviation="5"/><feComposite in2="hardAlpha" k2="-1" k3="1" operator="arithmetic"/><feColorMatrix values="0 0 0 0 0.324658 0 0 0 0 0.0970381 0 0 0 0 0.180025 0 0 0 0.45 0"/><feBlend in2="shape" result="effect1_innerShadow_170_1522"/><feColorMatrix in="SourceAlpha" result="hardAlpha" values="0 0 0 0 0 0 0 0 0 0 0 0 0 0 0 0 0 0 127 0"/><feOffset dy="7"/><feGaussianBlur stdDeviation="5"/><feComposite in2="hardAlpha" k2="-1" k3="1" operator="arithmetic"/><feColorMatrix values="0 0 0 0 1 0 0 0 0 1 0 0 0 0 1 0 0 0 0.45 0"/><feBlend in2="effect1_innerShadow_170_1522" result="effect2_innerShadow_170_1522"/></filter></defs></svg>